<svg width="24" height="24" viewBox="0 0 24 24" fill="none" xmlns="http://www.w3.org/2000/svg">
<path d="M11.5 1.75C16.8739 1.75 21.25 6.12614 21.25 11.5C21.25 16.8739 16.8739 21.25 11.5 21.25C6.12614 21.25 1.75 16.8739 1.75 11.5C1.75 6.12614 6.12614 1.75 11.5 1.75ZM11.5 2.25C6.39349 2.25 2.25 6.40423 2.25 11.5C2.25 16.5958 6.39349 20.75 11.5 20.75C16.6065 20.75 20.75 16.5958 20.75 11.5C20.75 6.40423 16.6065 2.25 11.5 2.25Z" fill="#212121" stroke="#212121"/>
<path d="M19.8242 19.8232C19.919 19.7285 20.082 19.7285 20.1768 19.8232L22.1768 21.8232C22.2714 21.918 22.2715 22.0811 22.1768 22.1758C22.1255 22.2271 22.0645 22.249 22 22.249C21.9356 22.2489 21.8754 22.2269 21.8242 22.1758L19.8242 20.1758C19.7295 20.081 19.7295 19.918 19.8242 19.8232Z" fill="#212121" stroke="#212121"/>
</svg>
