<svg width="33" height="32" viewBox="0 0 33 32" fill="none" xmlns="http://www.w3.org/2000/svg">
<rect x="0.75" y="0.25" width="31.5" height="31.5" rx="1.75" stroke="#C2C2C2" stroke-width="0.5"/>
<g clip-path="url(#clip0_2671_73560)">
<path d="M13.0265 6C13.7253 5.99978 14.4007 6.25239 14.9278 6.71119C15.455 7.17 15.7983 7.80403 15.8946 8.49623C15.9908 9.18844 15.8333 9.89207 15.4513 10.4772C15.0692 11.0624 14.4884 11.4896 13.8159 11.68V15.7369C13.8159 15.9462 13.7328 16.1471 13.5847 16.2951C13.4366 16.4432 13.2358 16.5264 13.0265 16.5264C12.8171 16.5264 12.6163 16.4432 12.4682 16.2951C12.3202 16.1471 12.237 15.9462 12.237 15.7369V11.68C11.566 11.4882 10.987 11.0605 10.6062 10.4757C10.2255 9.89091 10.0688 9.18831 10.1648 8.49712C10.2609 7.80596 10.6033 7.17272 11.1291 6.71392C11.6549 6.25511 12.3286 6.00159 13.0265 6ZM14.3423 8.89475C14.3423 8.54578 14.2036 8.21111 13.9569 7.96434C13.7101 7.71758 13.3754 7.57895 13.0265 7.57895C12.6775 7.57895 12.3428 7.71758 12.096 7.96434C11.8493 8.21111 11.7107 8.54578 11.7107 8.89475C11.7107 9.24372 11.8493 9.5784 12.096 9.82516C12.3428 10.0719 12.6775 10.2105 13.0265 10.2105C13.3754 10.2105 13.7101 10.0719 13.9569 9.82516C14.2036 9.5784 14.3423 9.24372 14.3423 8.89475ZM22.5002 10.7369C22.5002 10.0389 22.2229 9.36956 21.7294 8.87604C21.2359 8.38253 20.5665 8.10527 19.8685 8.10527C19.1706 8.10527 18.5013 8.38253 18.0078 8.87604C17.5142 9.36956 17.237 10.0389 17.237 10.7369V14.4211H14.8686V16H18.8159V10.7369C18.8159 10.4577 18.9269 10.1899 19.1242 9.99253C19.3217 9.79512 19.5894 9.68422 19.8685 9.68422C20.1478 9.68422 20.4154 9.79512 20.613 9.99253C20.8103 10.1899 20.9213 10.4577 20.9213 10.7369V23.3685C20.9213 23.6476 20.8103 23.9154 20.613 24.1128C20.4154 24.3101 20.1478 24.4211 19.8685 24.4211C19.5894 24.4211 19.3217 24.3101 19.1242 24.1128C18.9269 23.9154 18.8159 23.6476 18.8159 23.3685V18.1053H14.0791V23.3685C14.0791 23.6476 13.9682 23.9154 13.7708 24.1128C13.5734 24.3101 13.3056 24.4211 13.0265 24.4211C12.7473 24.4211 12.4795 24.3101 12.2821 24.1128C12.0847 23.9154 11.9738 23.6476 11.9738 23.3685V18.1053H5.658C5.51841 18.1053 5.38455 18.0499 5.28583 17.9512C5.18714 17.8524 5.13169 17.7186 5.13169 17.579V10.7369C5.13169 10.4577 5.24258 10.1899 5.44 9.99253C5.63741 9.79512 5.90514 9.68422 6.18432 9.68422C6.4635 9.68422 6.73125 9.79512 6.92864 9.99253C7.12605 10.1899 7.23695 10.4577 7.23695 10.7369V16H11.1843V14.4211H8.8159V10.7369C8.8159 10.0389 8.53866 9.36956 8.04513 8.87604C7.55161 8.38253 6.88226 8.10527 6.18432 8.10527C5.48638 8.10527 4.81703 8.38253 4.32351 8.87604C3.82999 9.36956 3.55273 10.0389 3.55273 10.7369V17.579C3.55273 18.1373 3.77454 18.6728 4.16935 19.0676C4.56417 19.4625 5.09965 19.6842 5.658 19.6842H10.3949V23.3685C10.3949 24.0664 10.6721 24.7357 11.1656 25.2293C11.6592 25.7228 12.3285 26 13.0265 26C13.7244 26 14.3937 25.7228 14.8873 25.2293C15.3808 24.7357 15.658 24.0664 15.658 23.3685V19.6842H17.237V23.3685C17.237 24.0664 17.5142 24.7357 18.0078 25.2293C18.5013 25.7228 19.1706 26 19.8685 26C20.5665 26 21.2359 25.7228 21.7294 25.2293C22.2229 24.7357 22.5002 24.0664 22.5002 23.3685V10.7369Z" fill="#727272"/>
</g>
<defs>
<clipPath id="clip0_2671_73560">
<rect width="18.9475" height="20" fill="white" transform="translate(3.55273 6)"/>
</clipPath>
</defs>
</svg>
