<svg width="33" height="32" viewBox="0 0 33 32" fill="none" xmlns="http://www.w3.org/2000/svg">
<rect x="0.75" y="0.25" width="31.5" height="31.5" rx="1.75" stroke="#C2C2C2" stroke-width="0.5"/>
<g clip-path="url(#clip0_2671_73580)">
<path d="M16.4997 7.65625C12.0971 7.65625 8.52832 11.2861 8.52832 15.7639C8.52832 20.2418 12.0971 23.8716 16.4997 23.8716C20.9024 23.8716 24.4712 20.2418 24.4712 15.7639C24.4712 11.2861 20.9024 7.65625 16.4997 7.65625ZM19.6883 16.5747L22.8275 16.5755C22.6499 18.0043 22.01 19.3323 21.0088 20.3506C20.0075 21.3688 18.7016 22.0194 17.2969 22.1998V19.007C17.9311 19.007 18.5394 18.7508 18.9879 18.2946C19.4364 17.8385 19.6883 17.2198 19.6883 16.5747ZM10.172 16.5755L13.3112 16.5747C13.3112 17.2198 13.5631 17.8385 14.0116 18.2946C14.4601 18.7508 15.0684 19.007 15.7026 19.007L15.7018 22.1998C14.2972 22.0193 12.9915 21.3685 11.9904 20.3504C10.9893 19.3321 10.3496 18.0042 10.172 16.5755ZM16.4997 9.27779C18.0531 9.27782 19.553 9.85439 20.718 10.8993C21.8831 11.9443 22.6332 13.3857 22.8275 14.9532H19.6883C19.6883 14.7381 19.6043 14.5319 19.4548 14.3799C19.3053 14.2278 19.1026 14.1424 18.8912 14.1424H14.1083C13.8969 14.1424 13.6942 14.2278 13.5446 14.3799C13.3952 14.5319 13.3112 14.7381 13.3112 14.9532H10.172C10.3664 13.3857 11.1164 11.9443 12.2815 10.8993C13.4465 9.85439 14.9464 9.27782 16.4997 9.27779Z" fill="#727272"/>
</g>
<defs>
<clipPath id="clip0_2671_73580">
<rect width="18" height="17" fill="white" transform="translate(7.5 7.5)"/>
</clipPath>
</defs>
</svg>
