<svg width="24" height="24" viewBox="0 0 24 24" fill="none" xmlns="http://www.w3.org/2000/svg">
<path d="M12 6.93945C13.8546 6.93952 15.3701 8.44659 15.3701 10.3096C15.3701 12.1708 13.8563 13.6699 12 13.6699C10.1454 13.6699 8.63007 12.1627 8.62988 10.2998C8.62988 8.43847 10.1436 6.93945 12 6.93945ZM12 7.43945C10.4252 7.43945 9.12988 8.72206 9.12988 10.3096C9.12995 11.8957 10.4139 13.1797 12 13.1797C13.586 13.1796 14.8701 11.8956 14.8701 10.3096C14.8701 8.7221 13.5747 7.43952 12 7.43945Z" fill="#868686" stroke="#868686"/>
<path d="M12.0005 1.75H12.0103C15.5667 1.75003 19.586 3.83209 20.6323 8.4502C21.791 13.5695 18.7049 17.9168 15.7847 20.7285C14.7198 21.7474 13.3544 22.2597 12.0005 22.2598C10.7312 22.2598 9.45179 21.8098 8.41943 20.9141L8.21631 20.7285C5.29628 17.9171 2.20936 13.5605 3.37744 8.44141V8.44043C4.42355 3.8323 8.44369 1.75 12.0005 1.75ZM12.0005 2.25C8.94161 2.25 4.93133 3.88808 3.87256 8.54785C2.72943 13.5332 5.87014 17.7676 8.57373 20.3604C10.4973 22.2165 13.5125 22.2156 15.436 20.3594L15.437 20.3604C18.1304 17.7679 21.2697 13.534 20.1479 8.5498V8.54785L20.0386 8.12012C18.8282 3.78737 14.9636 2.25011 12.0005 2.25Z" fill="#868686" stroke="#868686"/>
</svg>
